<svg xmlns="http://www.w3.org/2000/svg" xmlns:xlink="http://www.w3.org/1999/xlink" width="200" zoomAndPan="magnify" viewBox="0 0 375 374.999991" height="200" preserveAspectRatio="xMidYMid meet" version="1.0"><defs><g/><clipPath id="8b15d9c19e"><path d="M 54 95 L 322 95 L 322 280.675781 L 54 280.675781 Z M 54 95 " clip-rule="nonzero"/></clipPath><clipPath id="d917dece0e"><path d="M 52.257812 94.675781 L 322.738281 94.675781 L 322.738281 280.675781 L 52.257812 280.675781 Z M 52.257812 94.675781 " clip-rule="nonzero"/></clipPath><clipPath id="65f9ec73b2"><path d="M 285 94.675781 L 293 94.675781 L 293 100 L 285 100 Z M 285 94.675781 " clip-rule="nonzero"/></clipPath><clipPath id="cb61934416"><path d="M 63 94.675781 L 322.738281 94.675781 L 322.738281 279 L 63 279 Z M 63 94.675781 " clip-rule="nonzero"/></clipPath></defs><g clip-path="url(#8b15d9c19e)"><path fill="#e2a165" d="M 288.15625 95.621094 L 248.726562 95.859375 L 148.972656 97.277344 L 90.058594 98.105469 C 79.433594 99.054688 71.171875 106.871094 67.628906 115.273438 C 59.128906 120.722656 53.460938 130.90625 55.117188 142.390625 L 59.605469 163.816406 L 60.195312 167.609375 L 72.824219 232.371094 L 73.652344 236.394531 L 77.191406 255.691406 C 79.671875 265.875 88.054688 274.402344 99.386719 275.941406 C 101.75 275.941406 104.9375 276.414062 107.0625 275.347656 L 109.1875 275.347656 L 126.894531 271.914062 L 137.519531 270.019531 L 154.285156 266.941406 C 154.636719 266.703125 154.519531 265.875 155.109375 266.226562 L 155.109375 266.703125 L 167.503906 264.335938 L 167.503906 264.214844 L 168.921875 264.214844 L 206.699219 256.996094 L 209.535156 258.890625 L 237.746094 280.085938 L 237.867188 280.199219 L 237.867188 279.015625 L 229.953125 253.5625 L 230.195312 252.851562 L 273.875 244.324219 C 277.414062 242.433594 281.425781 241.484375 284.5 238.054688 C 287.09375 234.972656 289.691406 231.65625 291.34375 227.75 C 298.546875 224.789062 304.917969 218.277344 307.164062 210.824219 L 310.230469 195.191406 L 321.445312 123.917969 C 321.6875 114.089844 317.554688 105.332031 309.40625 99.882812 C 303.503906 95.621094 295.003906 95.265625 288.15625 95.621094 " fill-opacity="1" fill-rule="nonzero"/></g><g clip-path="url(#d917dece0e)"><path stroke-linecap="square" transform="matrix(-0.118055, 0, 0, -0.118396, 324.517219, 283.516035)" fill="none" stroke-linejoin="miter" d="M 308.001278 1587.005062 L 641.996614 1584.992482 L 1486.977682 1573.015983 L 1986.018464 1566.021444 C 2076.019189 1558.004118 2146.00137 1491.984904 2176.012641 1421.016724 C 2248.013221 1374.991335 2296.024637 1288.978297 2281.995112 1191.978552 L 2243.976424 1011.011342 L 2238.98006 978.975032 L 2132.004934 431.982256 L 2124.990172 397.999353 L 2095.011989 235.013388 C 2074.00079 149.000349 2002.992866 76.976389 1907.003122 63.977104 C 1886.984579 63.977104 1859.984361 59.984937 1841.984217 68.992056 L 1823.984072 68.992056 L 1673.993893 97.993 L 1583.993169 113.994659 L 1441.977319 139.99323 C 1438.999354 142.00581 1439.992009 149.000349 1434.995646 146.030969 L 1434.995646 142.00581 L 1330.00583 161.999634 L 1330.00583 163.022421 L 1317.994704 163.022421 L 997.995804 223.993689 L 973.973551 207.99203 L 735.008392 28.971414 L 733.982649 28.014613 L 733.982649 38.011526 L 801.019953 252.994633 L 798.968466 258.999379 L 428.97284 331.023339 C 398.994657 346.992004 365.012766 355.00933 338.972115 383.977281 C 317.00135 410.008845 294.997497 438.019995 281.00106 471.013106 C 219.985863 496.021883 166.018517 551.021398 146.992628 613.972253 L 121.018155 746.01068 L 26.021066 1348.002971 C 23.969579 1431.013637 58.977214 1504.98419 127.999828 1551.009579 C 177.996554 1587.005062 249.997134 1590.007435 308.001278 1587.005062 Z M 308.001278 1587.005062 " stroke="#000000" stroke-width="10" stroke-opacity="1" stroke-miterlimit="2"/></g><path fill="#ffffff" d="M 288.511719 95.738281 L 288.867188 95.980469 L 288.511719 95.738281 " fill-opacity="1" fill-rule="nonzero"/><g clip-path="url(#65f9ec73b2)"><path stroke-linecap="square" transform="matrix(-0.118055, 0, 0, -0.118396, 324.517219, 283.516035)" fill="none" stroke-linejoin="miter" d="M 304.990224 1586.015269 L 301.97917 1583.969696 Z M 304.990224 1586.015269 " stroke="#000000" stroke-width="10" stroke-opacity="1" stroke-miterlimit="2"/></g><path fill="#ffffff" d="M 236.921875 97.042969 C 236.445312 96.449219 236.6875 97.632812 236.097656 97.164062 L 159.242188 98.105469 L 88.878906 99.289062 C 80.855469 100.359375 73.179688 105.921875 69.640625 113.496094 C 67.984375 117.640625 66.804688 122.261719 67.511719 126.996094 L 89.707031 240.773438 C 91.59375 248.710938 98.914062 256.285156 106.941406 258.417969 L 112.84375 259.363281 L 121.820312 258.773438 L 190.878906 245.75 C 190.996094 245.863281 190.878906 245.984375 190.878906 246.222656 L 191.117188 245.628906 L 206.34375 242.550781 C 206.226562 240.773438 204.101562 240.539062 203.980469 238.644531 L 205.046875 238.996094 L 234.914062 275.109375 L 235.386719 275.585938 L 235.265625 273.574219 L 222.636719 234.261719 C 222.398438 234.027344 222.398438 233.789062 222.636719 233.554688 L 222.753906 233.433594 C 224.40625 234.972656 224.289062 236.871094 225.351562 238.882812 L 229.128906 238.761719 L 273.875 230.238281 L 290.515625 226.921875 C 290.75 227.042969 291.34375 226.921875 291.226562 226.328125 C 300.785156 222.304688 306.453125 214.492188 307.519531 203.835938 L 313.421875 166.894531 L 316.019531 152.21875 C 317.078125 149.015625 316.488281 145.941406 317.3125 142.625 L 319.796875 126.761719 C 321.921875 116.222656 317.3125 106.75 309.878906 101.304688 C 305.863281 98.460938 301.261719 96.804688 296.183594 96.6875 L 283.316406 96.332031 L 246.835938 97.042969 L 236.921875 97.042969 " fill-opacity="1" fill-rule="nonzero"/><g clip-path="url(#cb61934416)"><path stroke-linecap="square" transform="matrix(-0.118055, 0, 0, -0.118396, 324.517219, 283.516035)" fill="none" stroke-linejoin="miter" d="M 741.990066 1574.99557 C 746.026863 1580.010523 743.975376 1570.01361 748.97174 1573.972784 L 1399.988011 1566.021444 L 1996.011192 1556.024531 C 2063.974974 1546.984419 2128.99388 1500.00223 2158.972063 1436.028589 C 2173.001588 1401.022899 2182.994315 1361.99205 2177.005296 1322.0044 L 1988.99643 361.014076 C 1973.014683 293.972076 1911.006831 229.998435 1843.00996 211.984197 L 1793.013234 203.999864 L 1716.975857 208.981824 L 1132.004236 318.980853 C 1131.01158 318.024053 1132.004236 317.001267 1132.004236 314.988687 L 1129.985837 320.00364 L 1001.006857 346.002211 C 1001.999512 361.014076 1019.999657 362.993662 1021.025401 378.995321 L 1011.99224 376.025941 L 758.997556 71.004636 L 754.993847 66.979477 L 756.019591 83.970929 L 862.994717 416.013591 C 865.013115 417.993177 865.013115 420.005757 862.994717 421.985344 L 862.002062 423.00813 C 848.005625 410.008845 848.99828 393.974193 839.998208 376.982741 L 808.001627 378.005528 L 428.97284 449.996494 L 288.015823 478.007645 C 286.030513 476.984859 281.00106 478.007645 281.993715 483.022598 C 201.026152 517.005501 153.014736 582.991722 143.981575 672.996927 L 93.984849 985.012771 L 71.980995 1108.967887 C 63.014011 1136.022237 68.010375 1161.987815 61.028701 1189.998966 L 39.984414 1323.983987 C 21.984269 1412.999398 61.028701 1493.007691 123.99612 1539.000087 C 158.011099 1563.019071 196.989354 1577.00815 240.004407 1577.997943 L 348.997931 1581.000316 L 658.011449 1574.99557 Z M 741.990066 1574.99557 " stroke="#000000" stroke-width="10" stroke-opacity="1" stroke-miterlimit="2"/></g><path stroke-linecap="square" transform="matrix(-0.118055, 0, 0, -0.118396, 324.517219, 283.516035)" fill-opacity="1" fill="#ffffff" fill-rule="nonzero" stroke-linejoin="miter" d="M 1182.000962 281.995577 L 1181.008307 284.99795 L 1183.986272 283.975163 Z M 1182.000962 281.995577 " stroke="#000000" stroke-width="10" stroke-opacity="1" stroke-miterlimit="2"/><g fill="#ff8d55" fill-opacity="0.4"><g transform="translate(135.742528, 143.560139)"><g><path d="M 17.628906 0 L 22.699219 0 L 15.058594 -25.953125 L 15.058594 -26.019531 L 9.953125 -26.019531 L 2.277344 0 L 7.382812 0 L 9.300781 -6.472656 L 15.707031 -6.472656 Z M 10.734375 -11.316406 L 12.519531 -17.367188 L 14.277344 -11.316406 Z M 10.734375 -11.316406 "/></g></g></g><g fill="#ff8d55" fill-opacity="0.4"><g transform="translate(160.720002, 143.560139)"><g><path d="M 17.726562 -26.019531 L 17.726562 -8.457031 L 7.609375 -26.019531 L 2.277344 -26.019531 L 2.277344 0 L 7.15625 0 L 7.15625 -16.292969 L 16.523438 0 L 22.601562 0 L 22.601562 -26.019531 Z M 17.726562 -26.019531 "/></g></g></g><g fill="#ff8d55" fill-opacity="0.4"><g transform="translate(185.599911, 143.560139)"><g><path d="M 13.496094 -26.019531 L 2.277344 -26.019531 L 2.277344 0 L 7.15625 0 L 7.15625 -6.472656 L 13.496094 -6.472656 C 20.359375 -6.472656 22.601562 -10.863281 22.601562 -16.261719 C 22.601562 -21.660156 20.132812 -26.019531 13.496094 -26.019531 Z M 16.8125 -12.390625 C 16.261719 -11.675781 15.15625 -11.351562 13.496094 -11.351562 L 7.15625 -11.351562 L 7.15625 -21.171875 L 13.496094 -21.171875 C 15.902344 -21.171875 16.554688 -20.359375 16.78125 -20.097656 C 17.398438 -19.320312 17.726562 -17.953125 17.726562 -16.261719 C 17.726562 -14.472656 17.398438 -13.105469 16.8125 -12.390625 Z M 16.8125 -12.390625 "/></g></g></g><g fill="#ff8d55" fill-opacity="0.4"><g transform="translate(210.479821, 143.560139)"><g><path d="M 17.628906 0 L 22.699219 0 L 15.058594 -25.953125 L 15.058594 -26.019531 L 9.953125 -26.019531 L 2.277344 0 L 7.382812 0 L 9.300781 -6.472656 L 15.707031 -6.472656 Z M 10.734375 -11.316406 L 12.519531 -17.367188 L 14.277344 -11.316406 Z M 10.734375 -11.316406 "/></g></g></g><g fill="#e2a165" fill-opacity="1"><g transform="translate(137.640196, 142.831696)"><g><path d="M 17.628906 0 L 22.699219 0 L 15.058594 -25.953125 L 15.058594 -26.019531 L 9.953125 -26.019531 L 2.277344 0 L 7.382812 0 L 9.300781 -6.472656 L 15.707031 -6.472656 Z M 10.734375 -11.316406 L 12.519531 -17.367188 L 14.277344 -11.316406 Z M 10.734375 -11.316406 "/></g></g></g><g fill="#e2a165" fill-opacity="1"><g transform="translate(162.61767, 142.831696)"><g><path d="M 17.726562 -26.019531 L 17.726562 -8.457031 L 7.609375 -26.019531 L 2.277344 -26.019531 L 2.277344 0 L 7.15625 0 L 7.15625 -16.292969 L 16.523438 0 L 22.601562 0 L 22.601562 -26.019531 Z M 17.726562 -26.019531 "/></g></g></g><g fill="#e2a165" fill-opacity="1"><g transform="translate(187.497579, 142.831696)"><g><path d="M 13.496094 -26.019531 L 2.277344 -26.019531 L 2.277344 0 L 7.15625 0 L 7.15625 -6.472656 L 13.496094 -6.472656 C 20.359375 -6.472656 22.601562 -10.863281 22.601562 -16.261719 C 22.601562 -21.660156 20.132812 -26.019531 13.496094 -26.019531 Z M 16.8125 -12.390625 C 16.261719 -11.675781 15.15625 -11.351562 13.496094 -11.351562 L 7.15625 -11.351562 L 7.15625 -21.171875 L 13.496094 -21.171875 C 15.902344 -21.171875 16.554688 -20.359375 16.78125 -20.097656 C 17.398438 -19.320312 17.726562 -17.953125 17.726562 -16.261719 C 17.726562 -14.472656 17.398438 -13.105469 16.8125 -12.390625 Z M 16.8125 -12.390625 "/></g></g></g><g fill="#e2a165" fill-opacity="1"><g transform="translate(212.377489, 142.831696)"><g><path d="M 17.628906 0 L 22.699219 0 L 15.058594 -25.953125 L 15.058594 -26.019531 L 9.953125 -26.019531 L 2.277344 0 L 7.382812 0 L 9.300781 -6.472656 L 15.707031 -6.472656 Z M 10.734375 -11.316406 L 12.519531 -17.367188 L 14.277344 -11.316406 Z M 10.734375 -11.316406 "/></g></g></g><g fill="#ffffff" fill-opacity="0.4"><g transform="translate(99.41695, 186.602301)"><g><path d="M 17.367188 -21.203125 L 17.367188 -26.050781 L 2.277344 -26.050781 L 2.277344 0 L 17.367188 0 L 17.367188 -4.847656 L 7.15625 -4.847656 L 7.15625 -10.636719 L 13.238281 -10.636719 L 13.238281 -15.480469 L 7.15625 -15.480469 L 7.15625 -21.203125 Z M 17.367188 -21.203125 "/></g></g></g><g fill="#ffffff" fill-opacity="0.4"><g transform="translate(119.060689, 186.602301)"><g><path d="M 10.796875 -26.019531 L 2.277344 -26.019531 L 2.277344 0 L 10.796875 0 C 17.660156 0 22.539062 -5.820312 22.539062 -13.007812 C 22.539062 -20.195312 17.464844 -26.019531 10.796875 -26.019531 Z M 10.796875 -21.171875 C 14.667969 -21.171875 17.691406 -17.59375 17.691406 -13.007812 C 17.691406 -10.667969 16.976562 -8.554688 15.609375 -7.023438 C 14.734375 -6.015625 13.203125 -4.847656 10.796875 -4.847656 L 7.121094 -4.847656 L 7.121094 -21.171875 Z M 10.796875 -21.171875 "/></g></g></g><g fill="#ffffff" fill-opacity="0.4"><g transform="translate(143.875548, 186.602301)"><g><path d="M 17.238281 -26.019531 L 17.238281 -9.007812 C 17.238281 -6.375 15.125 -4.261719 12.519531 -4.261719 L 11.871094 -4.261719 C 9.269531 -4.261719 7.15625 -6.375 7.15625 -9.007812 L 7.15625 -26.019531 L 2.277344 -26.019531 L 2.277344 -9.007812 C 2.277344 -3.738281 6.601562 0.585938 11.871094 0.585938 L 12.519531 0.585938 C 17.789062 0.585938 22.082031 -3.738281 22.082031 -9.007812 L 22.082031 -26.019531 Z M 17.238281 -26.019531 "/></g></g></g><g fill="#ffffff" fill-opacity="0.4"><g transform="translate(168.23509, 186.602301)"><g><path d="M 17.628906 0 L 22.699219 0 L 15.058594 -25.953125 L 15.058594 -26.019531 L 9.953125 -26.019531 L 2.277344 0 L 7.382812 0 L 9.300781 -6.472656 L 15.707031 -6.472656 Z M 10.734375 -11.316406 L 12.519531 -17.367188 L 14.277344 -11.316406 Z M 10.734375 -11.316406 "/></g></g></g><g fill="#ffffff" fill-opacity="0.4"><g transform="translate(193.212564, 186.602301)"><g><path d="M 22.601562 -16.261719 C 22.601562 -21.660156 20.132812 -26.019531 13.496094 -26.019531 L 2.277344 -26.019531 L 2.277344 0 L 7.15625 0 L 7.15625 -6.472656 L 13.496094 -6.472656 C 14.082031 -6.472656 14.636719 -6.503906 15.15625 -6.570312 L 17.496094 0 L 22.601562 0 L 19.644531 -8.324219 C 21.789062 -10.113281 22.601562 -13.007812 22.601562 -16.261719 Z M 7.15625 -11.351562 L 7.15625 -21.171875 L 13.496094 -21.171875 C 15.902344 -21.171875 16.554688 -20.359375 16.78125 -20.097656 C 17.398438 -19.320312 17.726562 -17.953125 17.726562 -16.261719 C 17.726562 -14.472656 17.398438 -13.105469 16.8125 -12.390625 C 16.261719 -11.675781 15.15625 -11.351562 13.496094 -11.351562 Z M 7.15625 -11.351562 "/></g></g></g><g fill="#ffffff" fill-opacity="0.4"><g transform="translate(218.092473, 186.602301)"><g><path d="M 10.796875 -26.019531 L 2.277344 -26.019531 L 2.277344 0 L 10.796875 0 C 17.660156 0 22.539062 -5.820312 22.539062 -13.007812 C 22.539062 -20.195312 17.464844 -26.019531 10.796875 -26.019531 Z M 10.796875 -21.171875 C 14.667969 -21.171875 17.691406 -17.59375 17.691406 -13.007812 C 17.691406 -10.667969 16.976562 -8.554688 15.609375 -7.023438 C 14.734375 -6.015625 13.203125 -4.847656 10.796875 -4.847656 L 7.121094 -4.847656 L 7.121094 -21.171875 Z M 10.796875 -21.171875 "/></g></g></g><g fill="#ffffff" fill-opacity="0.4"><g transform="translate(242.907324, 186.602301)"><g><path d="M 14.441406 -26.34375 C 7.089844 -26.34375 1.136719 -20.390625 1.136719 -13.042969 C 1.136719 -5.691406 7.089844 0.261719 14.441406 0.261719 C 21.789062 0.261719 27.742188 -5.691406 27.742188 -13.042969 C 27.742188 -20.390625 21.789062 -26.34375 14.441406 -26.34375 Z M 14.441406 -21.367188 C 19.058594 -21.367188 22.3125 -17.628906 22.3125 -13.042969 C 22.3125 -8.457031 19.058594 -4.714844 14.441406 -4.714844 C 9.855469 -4.714844 6.601562 -8.457031 6.601562 -13.042969 C 6.601562 -17.628906 9.855469 -21.367188 14.441406 -21.367188 Z M 14.441406 -21.367188 "/></g></g></g><g fill="#000000" fill-opacity="1"><g transform="translate(101.314618, 185.873848)"><g><path d="M 17.367188 -21.203125 L 17.367188 -26.050781 L 2.277344 -26.050781 L 2.277344 0 L 17.367188 0 L 17.367188 -4.847656 L 7.15625 -4.847656 L 7.15625 -10.636719 L 13.238281 -10.636719 L 13.238281 -15.480469 L 7.15625 -15.480469 L 7.15625 -21.203125 Z M 17.367188 -21.203125 "/></g></g></g><g fill="#000000" fill-opacity="1"><g transform="translate(120.958357, 185.873848)"><g><path d="M 10.796875 -26.019531 L 2.277344 -26.019531 L 2.277344 0 L 10.796875 0 C 17.660156 0 22.539062 -5.820312 22.539062 -13.007812 C 22.539062 -20.195312 17.464844 -26.019531 10.796875 -26.019531 Z M 10.796875 -21.171875 C 14.667969 -21.171875 17.691406 -17.59375 17.691406 -13.007812 C 17.691406 -10.667969 16.976562 -8.554688 15.609375 -7.023438 C 14.734375 -6.015625 13.203125 -4.847656 10.796875 -4.847656 L 7.121094 -4.847656 L 7.121094 -21.171875 Z M 10.796875 -21.171875 "/></g></g></g><g fill="#000000" fill-opacity="1"><g transform="translate(145.773216, 185.873848)"><g><path d="M 17.238281 -26.019531 L 17.238281 -9.007812 C 17.238281 -6.375 15.125 -4.261719 12.519531 -4.261719 L 11.871094 -4.261719 C 9.269531 -4.261719 7.15625 -6.375 7.15625 -9.007812 L 7.15625 -26.019531 L 2.277344 -26.019531 L 2.277344 -9.007812 C 2.277344 -3.738281 6.601562 0.585938 11.871094 0.585938 L 12.519531 0.585938 C 17.789062 0.585938 22.082031 -3.738281 22.082031 -9.007812 L 22.082031 -26.019531 Z M 17.238281 -26.019531 "/></g></g></g><g fill="#000000" fill-opacity="1"><g transform="translate(170.132758, 185.873848)"><g><path d="M 17.628906 0 L 22.699219 0 L 15.058594 -25.953125 L 15.058594 -26.019531 L 9.953125 -26.019531 L 2.277344 0 L 7.382812 0 L 9.300781 -6.472656 L 15.707031 -6.472656 Z M 10.734375 -11.316406 L 12.519531 -17.367188 L 14.277344 -11.316406 Z M 10.734375 -11.316406 "/></g></g></g><g fill="#000000" fill-opacity="1"><g transform="translate(195.110232, 185.873848)"><g><path d="M 22.601562 -16.261719 C 22.601562 -21.660156 20.132812 -26.019531 13.496094 -26.019531 L 2.277344 -26.019531 L 2.277344 0 L 7.15625 0 L 7.15625 -6.472656 L 13.496094 -6.472656 C 14.082031 -6.472656 14.636719 -6.503906 15.15625 -6.570312 L 17.496094 0 L 22.601562 0 L 19.644531 -8.324219 C 21.789062 -10.113281 22.601562 -13.007812 22.601562 -16.261719 Z M 7.15625 -11.351562 L 7.15625 -21.171875 L 13.496094 -21.171875 C 15.902344 -21.171875 16.554688 -20.359375 16.78125 -20.097656 C 17.398438 -19.320312 17.726562 -17.953125 17.726562 -16.261719 C 17.726562 -14.472656 17.398438 -13.105469 16.8125 -12.390625 C 16.261719 -11.675781 15.15625 -11.351562 13.496094 -11.351562 Z M 7.15625 -11.351562 "/></g></g></g><g fill="#000000" fill-opacity="1"><g transform="translate(219.990141, 185.873848)"><g><path d="M 10.796875 -26.019531 L 2.277344 -26.019531 L 2.277344 0 L 10.796875 0 C 17.660156 0 22.539062 -5.820312 22.539062 -13.007812 C 22.539062 -20.195312 17.464844 -26.019531 10.796875 -26.019531 Z M 10.796875 -21.171875 C 14.667969 -21.171875 17.691406 -17.59375 17.691406 -13.007812 C 17.691406 -10.667969 16.976562 -8.554688 15.609375 -7.023438 C 14.734375 -6.015625 13.203125 -4.847656 10.796875 -4.847656 L 7.121094 -4.847656 L 7.121094 -21.171875 Z M 10.796875 -21.171875 "/></g></g></g><g fill="#000000" fill-opacity="1"><g transform="translate(244.804992, 185.873848)"><g><path d="M 14.441406 -26.34375 C 7.089844 -26.34375 1.136719 -20.390625 1.136719 -13.042969 C 1.136719 -5.691406 7.089844 0.261719 14.441406 0.261719 C 21.789062 0.261719 27.742188 -5.691406 27.742188 -13.042969 C 27.742188 -20.390625 21.789062 -26.34375 14.441406 -26.34375 Z M 14.441406 -21.367188 C 19.058594 -21.367188 22.3125 -17.628906 22.3125 -13.042969 C 22.3125 -8.457031 19.058594 -4.714844 14.441406 -4.714844 C 9.855469 -4.714844 6.601562 -8.457031 6.601562 -13.042969 C 6.601562 -17.628906 9.855469 -21.367188 14.441406 -21.367188 Z M 14.441406 -21.367188 "/></g></g></g><g fill="#ffffff" fill-opacity="0.4"><g transform="translate(271.779237, 186.602301)"><g/></g></g><g fill="#000000" fill-opacity="1"><g transform="translate(273.676905, 185.873848)"><g/></g></g><g fill="#ffffff" fill-opacity="0.4"><g transform="translate(87.415704, 215.872806)"><g><path d="M 13.074219 0.324219 L 13.660156 0.324219 C 19.253906 0.292969 22.441406 -3.351562 22.667969 -6.960938 C 22.929688 -10.734375 20.066406 -14.960938 13.171875 -15.839844 L 13.105469 -15.839844 C 10.601562 -16.132812 8 -17.367188 8.128906 -19.1875 C 8.226562 -20.488281 10.179688 -21.691406 13.726562 -21.53125 L 13.820312 -21.53125 C 15.773438 -21.53125 18.113281 -20.585938 19.320312 -19.707031 L 22.117188 -23.613281 C 20.261719 -24.945312 17.007812 -26.3125 13.886719 -26.3125 C 6.992188 -26.667969 3.640625 -23.15625 3.351562 -19.578125 C 3.1875 -17.496094 4.066406 -15.449219 5.757812 -13.886719 C 7.414062 -12.359375 9.789062 -11.382812 12.585938 -11.089844 C 16.390625 -10.570312 17.984375 -8.8125 17.886719 -7.285156 C 17.789062 -5.886719 16.292969 -4.488281 13.59375 -4.488281 L 13.433594 -4.488281 C 13.398438 -4.488281 9.855469 -4.292969 7.675781 -6.082031 C 7.121094 -6.503906 6.667969 -7.023438 6.246094 -7.644531 L 2.277344 -4.945312 C 2.925781 -3.96875 3.738281 -3.089844 4.652344 -2.339844 C 7.609375 0.0664062 11.511719 0.324219 13.074219 0.324219 Z M 13.074219 0.324219 "/></g></g></g><g fill="#ffffff" fill-opacity="0.4"><g transform="translate(112.360656, 215.872806)"><g><path d="M 17.628906 0 L 22.699219 0 L 15.058594 -25.953125 L 15.058594 -26.019531 L 9.953125 -26.019531 L 2.277344 0 L 7.382812 0 L 9.300781 -6.472656 L 15.707031 -6.472656 Z M 10.734375 -11.316406 L 12.519531 -17.367188 L 14.277344 -11.316406 Z M 10.734375 -11.316406 "/></g></g></g><g fill="#ffffff" fill-opacity="0.4"><g transform="translate(137.33813, 215.872806)"><g><path d="M 17.726562 -26.019531 L 17.726562 -8.457031 L 7.609375 -26.019531 L 2.277344 -26.019531 L 2.277344 0 L 7.15625 0 L 7.15625 -16.292969 L 16.523438 0 L 22.601562 0 L 22.601562 -26.019531 Z M 17.726562 -26.019531 "/></g></g></g><g fill="#ffffff" fill-opacity="0.4"><g transform="translate(162.21804, 215.872806)"><g><path d="M 14.570312 -26.019531 L 14.570312 -8.976562 C 14.570312 -6.535156 12.617188 -4.554688 10.179688 -4.554688 C 8.359375 -4.554688 6.796875 -5.660156 6.113281 -7.253906 L 2.277344 -4.128906 C 3.933594 -1.496094 6.863281 0.292969 10.179688 0.292969 C 15.253906 0.292969 19.449219 -3.871094 19.449219 -8.976562 L 19.449219 -26.019531 Z M 14.570312 -26.019531 "/></g></g></g><g fill="#ffffff" fill-opacity="0.4"><g transform="translate(183.943235, 215.872806)"><g><path d="M 17.238281 -26.019531 L 17.238281 -9.007812 C 17.238281 -6.375 15.125 -4.261719 12.519531 -4.261719 L 11.871094 -4.261719 C 9.269531 -4.261719 7.15625 -6.375 7.15625 -9.007812 L 7.15625 -26.019531 L 2.277344 -26.019531 L 2.277344 -9.007812 C 2.277344 -3.738281 6.601562 0.585938 11.871094 0.585938 L 12.519531 0.585938 C 17.789062 0.585938 22.082031 -3.738281 22.082031 -9.007812 L 22.082031 -26.019531 Z M 17.238281 -26.019531 "/></g></g></g><g fill="#ffffff" fill-opacity="0.4"><g transform="translate(208.302777, 215.872806)"><g><path d="M 22.601562 -16.261719 C 22.601562 -21.660156 20.132812 -26.019531 13.496094 -26.019531 L 2.277344 -26.019531 L 2.277344 0 L 7.15625 0 L 7.15625 -6.472656 L 13.496094 -6.472656 C 14.082031 -6.472656 14.636719 -6.503906 15.15625 -6.570312 L 17.496094 0 L 22.601562 0 L 19.644531 -8.324219 C 21.789062 -10.113281 22.601562 -13.007812 22.601562 -16.261719 Z M 7.15625 -11.351562 L 7.15625 -21.171875 L 13.496094 -21.171875 C 15.902344 -21.171875 16.554688 -20.359375 16.78125 -20.097656 C 17.398438 -19.320312 17.726562 -17.953125 17.726562 -16.261719 C 17.726562 -14.472656 17.398438 -13.105469 16.8125 -12.390625 C 16.261719 -11.675781 15.15625 -11.351562 13.496094 -11.351562 Z M 7.15625 -11.351562 "/></g></g></g><g fill="#ffffff" fill-opacity="0.4"><g transform="translate(233.182679, 215.872806)"><g><path d="M 14.570312 -26.019531 L 14.570312 -8.976562 C 14.570312 -6.535156 12.617188 -4.554688 10.179688 -4.554688 C 8.359375 -4.554688 6.796875 -5.660156 6.113281 -7.253906 L 2.277344 -4.128906 C 3.933594 -1.496094 6.863281 0.292969 10.179688 0.292969 C 15.253906 0.292969 19.449219 -3.871094 19.449219 -8.976562 L 19.449219 -26.019531 Z M 14.570312 -26.019531 "/></g></g></g><g fill="#ffffff" fill-opacity="0.4"><g transform="translate(254.907874, 215.872806)"><g><path d="M 14.441406 -26.34375 C 7.089844 -26.34375 1.136719 -20.390625 1.136719 -13.042969 C 1.136719 -5.691406 7.089844 0.261719 14.441406 0.261719 C 21.789062 0.261719 27.742188 -5.691406 27.742188 -13.042969 C 27.742188 -20.390625 21.789062 -26.34375 14.441406 -26.34375 Z M 14.441406 -21.367188 C 19.058594 -21.367188 22.3125 -17.628906 22.3125 -13.042969 C 22.3125 -8.457031 19.058594 -4.714844 14.441406 -4.714844 C 9.855469 -4.714844 6.601562 -8.457031 6.601562 -13.042969 C 6.601562 -17.628906 9.855469 -21.367188 14.441406 -21.367188 Z M 14.441406 -21.367188 "/></g></g></g><g fill="#000000" fill-opacity="1"><g transform="translate(89.313372, 215.144353)"><g><path d="M 13.074219 0.324219 L 13.660156 0.324219 C 19.253906 0.292969 22.441406 -3.351562 22.667969 -6.960938 C 22.929688 -10.734375 20.066406 -14.960938 13.171875 -15.839844 L 13.105469 -15.839844 C 10.601562 -16.132812 8 -17.367188 8.128906 -19.1875 C 8.226562 -20.488281 10.179688 -21.691406 13.726562 -21.53125 L 13.820312 -21.53125 C 15.773438 -21.53125 18.113281 -20.585938 19.320312 -19.707031 L 22.117188 -23.613281 C 20.261719 -24.945312 17.007812 -26.3125 13.886719 -26.3125 C 6.992188 -26.667969 3.640625 -23.15625 3.351562 -19.578125 C 3.1875 -17.496094 4.066406 -15.449219 5.757812 -13.886719 C 7.414062 -12.359375 9.789062 -11.382812 12.585938 -11.089844 C 16.390625 -10.570312 17.984375 -8.8125 17.886719 -7.285156 C 17.789062 -5.886719 16.292969 -4.488281 13.59375 -4.488281 L 13.433594 -4.488281 C 13.398438 -4.488281 9.855469 -4.292969 7.675781 -6.082031 C 7.121094 -6.503906 6.667969 -7.023438 6.246094 -7.644531 L 2.277344 -4.945312 C 2.925781 -3.96875 3.738281 -3.089844 4.652344 -2.339844 C 7.609375 0.0664062 11.511719 0.324219 13.074219 0.324219 Z M 13.074219 0.324219 "/></g></g></g><g fill="#000000" fill-opacity="1"><g transform="translate(114.258324, 215.144353)"><g><path d="M 17.628906 0 L 22.699219 0 L 15.058594 -25.953125 L 15.058594 -26.019531 L 9.953125 -26.019531 L 2.277344 0 L 7.382812 0 L 9.300781 -6.472656 L 15.707031 -6.472656 Z M 10.734375 -11.316406 L 12.519531 -17.367188 L 14.277344 -11.316406 Z M 10.734375 -11.316406 "/></g></g></g><g fill="#000000" fill-opacity="1"><g transform="translate(139.235798, 215.144353)"><g><path d="M 17.726562 -26.019531 L 17.726562 -8.457031 L 7.609375 -26.019531 L 2.277344 -26.019531 L 2.277344 0 L 7.15625 0 L 7.15625 -16.292969 L 16.523438 0 L 22.601562 0 L 22.601562 -26.019531 Z M 17.726562 -26.019531 "/></g></g></g><g fill="#000000" fill-opacity="1"><g transform="translate(164.115708, 215.144353)"><g><path d="M 14.570312 -26.019531 L 14.570312 -8.976562 C 14.570312 -6.535156 12.617188 -4.554688 10.179688 -4.554688 C 8.359375 -4.554688 6.796875 -5.660156 6.113281 -7.253906 L 2.277344 -4.128906 C 3.933594 -1.496094 6.863281 0.292969 10.179688 0.292969 C 15.253906 0.292969 19.449219 -3.871094 19.449219 -8.976562 L 19.449219 -26.019531 Z M 14.570312 -26.019531 "/></g></g></g><g fill="#000000" fill-opacity="1"><g transform="translate(185.840903, 215.144353)"><g><path d="M 17.238281 -26.019531 L 17.238281 -9.007812 C 17.238281 -6.375 15.125 -4.261719 12.519531 -4.261719 L 11.871094 -4.261719 C 9.269531 -4.261719 7.15625 -6.375 7.15625 -9.007812 L 7.15625 -26.019531 L 2.277344 -26.019531 L 2.277344 -9.007812 C 2.277344 -3.738281 6.601562 0.585938 11.871094 0.585938 L 12.519531 0.585938 C 17.789062 0.585938 22.082031 -3.738281 22.082031 -9.007812 L 22.082031 -26.019531 Z M 17.238281 -26.019531 "/></g></g></g><g fill="#000000" fill-opacity="1"><g transform="translate(210.200445, 215.144353)"><g><path d="M 22.601562 -16.261719 C 22.601562 -21.660156 20.132812 -26.019531 13.496094 -26.019531 L 2.277344 -26.019531 L 2.277344 0 L 7.15625 0 L 7.15625 -6.472656 L 13.496094 -6.472656 C 14.082031 -6.472656 14.636719 -6.503906 15.15625 -6.570312 L 17.496094 0 L 22.601562 0 L 19.644531 -8.324219 C 21.789062 -10.113281 22.601562 -13.007812 22.601562 -16.261719 Z M 7.15625 -11.351562 L 7.15625 -21.171875 L 13.496094 -21.171875 C 15.902344 -21.171875 16.554688 -20.359375 16.78125 -20.097656 C 17.398438 -19.320312 17.726562 -17.953125 17.726562 -16.261719 C 17.726562 -14.472656 17.398438 -13.105469 16.8125 -12.390625 C 16.261719 -11.675781 15.15625 -11.351562 13.496094 -11.351562 Z M 7.15625 -11.351562 "/></g></g></g><g fill="#000000" fill-opacity="1"><g transform="translate(235.080346, 215.144353)"><g><path d="M 14.570312 -26.019531 L 14.570312 -8.976562 C 14.570312 -6.535156 12.617188 -4.554688 10.179688 -4.554688 C 8.359375 -4.554688 6.796875 -5.660156 6.113281 -7.253906 L 2.277344 -4.128906 C 3.933594 -1.496094 6.863281 0.292969 10.179688 0.292969 C 15.253906 0.292969 19.449219 -3.871094 19.449219 -8.976562 L 19.449219 -26.019531 Z M 14.570312 -26.019531 "/></g></g></g><g fill="#000000" fill-opacity="1"><g transform="translate(256.805542, 215.144353)"><g><path d="M 14.441406 -26.34375 C 7.089844 -26.34375 1.136719 -20.390625 1.136719 -13.042969 C 1.136719 -5.691406 7.089844 0.261719 14.441406 0.261719 C 21.789062 0.261719 27.742188 -5.691406 27.742188 -13.042969 C 27.742188 -20.390625 21.789062 -26.34375 14.441406 -26.34375 Z M 14.441406 -21.367188 C 19.058594 -21.367188 22.3125 -17.628906 22.3125 -13.042969 C 22.3125 -8.457031 19.058594 -4.714844 14.441406 -4.714844 C 9.855469 -4.714844 6.601562 -8.457031 6.601562 -13.042969 C 6.601562 -17.628906 9.855469 -21.367188 14.441406 -21.367188 Z M 14.441406 -21.367188 "/></g></g></g></svg>